# AST/ASF file generated using VICON BodyLanguage
# -----------------------------------------------
:version 1.10
:name VICON
:units
  mass 1.0
  length 0.45
  angle deg
:documentation
   .ast/.asf automatically generated from VICON data using
   VICON BodyBuilder and BodyLanguage model FoxedUp or BRILLIANT.MOD
:root
   order TX TY TZ RX RY RZ
   axis XYZ
   position 0 0 0  
   orientation 0 0 0 
:bonedata
  begin
     id 1 
     name lhipjoint
     direction 0.54267 -0.795011 0.271047 
     length 2.39899 
     axis 0 0 0  XYZ
  end
  begin
     id 2 
     name lfemur
     direction 0.34202 -0.939693 0  
     length 7.49701  
     axis 0 0 20  XYZ
    dof rx ry rz
    limits (-160.0 20.0)
           (-70.0 70.0)
           (-60.0 70.0)
  end
  begin
     id 3 
     name ltibia
     direction 0.34202 -0.939693 0   
     length 8.1668   
     axis 0 0 20   XYZ
    dof rx
    limits (-10.0 170.0)
  end
  begin
     id 4 
     name lfoot
     direction 0.0736283 -0.202292 0.976554   
     length 2.13544   
     axis -90 7.62852e-016 20   XYZ
    dof rx rz
    limits (-45.0 90.0)
           (-70.0 20.0)
  end
  begin
     id 5 
     name ltoes
     direction 1.53557e-011 -4.22024e-011 1   
     length 1.07411   
     axis -90 7.62852e-016 20   XYZ
    dof rx
    limits (-90.0 20.0)
  end
  begin
     id 6 
     name rhipjoint
     direction -0.538061 -0.797813 0.272002   
     length 2.39057  
     axis 0 0 0  XYZ 
  end
  begin
     id 7 
     name rfemur
     direction -0.34202 -0.939693 0   
     length 7.50152   
     axis 0 0 -20   XYZ
    dof rx ry rz
    limits (-160.0 20.0)
           (-70.0 70.0)
           (-70.0 60.0)
  end
  begin
     id 8 
     name rtibia
     direction -0.34202 -0.939693 0   
     length 8.05793   
     axis 0 0 -20   XYZ
    dof rx
    limits (-10.0 170.0)
 end
 begin
     id 9 
     name rfoot
     direction -0.0765195 -0.210236 0.974652   
     length 2.28698  
     axis -90 -7.62852e-016 -20   XYZ
    dof rx rz
    limits (-45.0 90.0)
           (-20.0 70.0)
  end
  begin
     id 10 
     name rtoes
     direction -1.53542e-011 -4.21847e-011 1   
     length 1.14762   
     axis -90 -7.62852e-016 -20   XYZ
    dof rx
    limits (-90.0 20.0)
  end
  begin
     id 11 
     name lowerback
     direction -0.0217239 0.996592 -0.0795765   
     length 2.08176   
     axis 0 0 0   XYZ
    dof rx ry rz
    limits (-20.0 45.0)
           (-30.0 30.0)
           (-30.0 30.0)
  end
  begin
     id 12 
     name upperback
     direction -0.00563773 0.999651 -0.0258155   
     length 2.08898   
     axis 0 0 0   XYZ
    dof rx ry rz
    limits (-20.0 45.0)
           (-30.0 30.0)
           (-30.0 30.0)
  end
  begin
     id 13 
     name thorax
     direction 0.0032706 0.999923 0.0119599   
     length 2.0968   
     axis 0 0 0   XYZ
    dof rx ry rz
    limits (-20.0 45.0)
           (-30.0 30.0)
           (-30.0 30.0)
  end
  begin
     id 14 
     name lowerneck
     direction -0.0285886 0.99568 0.0883427   
     length 1.81272   
     axis 0 0 0   XYZ
    dof rx ry rz
    limits (-20.0 45.0)
           (-30.0 30.0)
           (-30.0 30.0)
  end
  begin
     id 15 
     name upperneck
     direction 0.0807535 0.97985 -0.18268   
     length 1.82518   
     axis 0 0 0   XYZ
    dof rx ry rz
    limits (-20.0 45.0)
           (-30.0 30.0)
           (-30.0 30.0)
  end
  begin
     id 16
     name head
     direction 0.0236605 0.997053 -0.0729767  
     length 1.84443  
     axis 0 0 0   XYZ
    dof rx ry rz
    limits (-20.0 45.0)
           (-30.0 30.0)
           (-30.0 30.0)
  end
  begin
     id 17 
     name lclavicle
     direction 0.918986 0.39378 -0.0200683  
     length 3.27822  
     axis 0 0 0   XYZ
    dof ry rz
    limits (-20.0 10.0)
           (0.0 20.0)
  end
  begin
     id 18 
     name lhumerus
     direction 1 -4.4897e-011 2.09544e-027   
     length 5.5568   
     axis 180 -30 -90   XYZ
    dof rx ry rz
    limits (-60.0 90.0)
           (-90.0 90.0)
           (-90.0 90.0)
  end
  begin
     id 19
     name lradius
     direction 1 -4.48957e-011 -1.27696e-026   
     length 3.63979   
     axis 180 -30 -90   XYZ
    dof rx
    limits (-10.0 170.0)
  end
  begin
     id 20
     name lwrist
     direction 1 -4.49001e-011 -1.49001e-026   
     length 1.8199   
     axis 9.0955e-015 90 90   XYZ
    dof ry
    limits (-180.0 0.0)
 end
  begin
     id 21 
     name lhand
     direction 1 -4.48709e-011 -2.9758e-026   
     length 0.569419   
     axis 1.90115e-014 90 90   XYZ
    dof rx rz
    limits (-90.0 90.0)
           (-45.0 45.0)
  end
  begin
     id 22 
     name lfingers
     direction 1 -4.49175e-011 -5.96505e-026   
     length 0.45908   
     axis 3.80223e-014 90 90   XYZ
    dof rx
    limits (0.0 90.0)
  end
  begin
     id 23
     name lthumb
     direction 0.707107 -6.34864e-011 0.707107   
     length 0.65915   
     axis -90 45 -3.84942e-014   XYZ
    dof rx rz
    limits (-45.0 45.0)
           (-45.0 45.0)
  end
  begin
     id 24 
     name rclavicle
     direction -0.911913 0.396426 -0.106115   
     length 3.46301  
     axis 0 0 0   XYZ 
    dof ry rz
    limits (-10.0 20.0)
           (-20.0 0.0)
  end
  begin
     id 25 
     name rhumerus
     direction -1 -4.48965e-011 7.78516e-028  
     length 5.34339   
     axis 180 30 90   XYZ
    dof rx ry rz
    limits (-90.0 60.0)
           (-90.0 90.0)
           (-90.0 90.0)
  end
  begin
     id 26 
     name rradius
     direction -1 -4.48948e-011 -5.79823e-027   
     length 3.65101   
     axis 180 30 90   XYZ
    dof rx
    limits (-10.0 170.0)
  end
  begin
     id 27 
     name rwrist
     direction -1 -4.48995e-011 -1.48996e-026   
     length 1.8255   
     axis 9.0955e-015 -90 -90   XYZ
    dof ry
    limits (-180.0 0.0)
  end
  begin
     id 28
     name rhand
     direction -1 -4.48957e-011 -2.97937e-026   
     length 0.694249   
     axis 1.90115e-014 -90 -90   XYZ
    dof rx rz
    limits (-90.0 90.0)
           (-45.0 45.0)
  end
  begin
     id 29
     name rfingers
     direction -1 -4.4898e-011 -5.95943e-026   
     length 0.559721   
     axis 3.80223e-014 -90 -90   XYZ
    dof rx
    limits (0.0 90.0)
  end
  begin
     id 30
     name rthumb
     direction -0.707107 -6.34969e-011 0.707107   
     length 0.803651   
     axis -90 -45 3.84942e-014   XYZ
    dof rx rz
    limits (-45.0 45.0)
           (-45.0 45.0)
  end
:hierarchy
  begin
    root lhipjoint rhipjoint lowerback
    lhipjoint lfemur
    lfemur ltibia
    ltibia lfoot
    lfoot ltoes
    rhipjoint rfemur
    rfemur rtibia
    rtibia rfoot
    rfoot rtoes
    lowerback upperback
    upperback thorax
    thorax lowerneck lclavicle rclavicle
    lowerneck upperneck
    upperneck head
    lclavicle lhumerus
    lhumerus lradius
    lradius lwrist
    lwrist lhand lthumb
    lhand lfingers
    rclavicle rhumerus
    rhumerus rradius
    rradius rwrist
    rwrist rhand rthumb
    rhand rfingers
  end

#!OML:ASF H:\Terrain\Walking\May29\JustinRory\rory.ASF
:FULLY-SPECIFIED
:DEGREES
48
root 12.2257 18.2378 -11.5169 -2.44078 6.30183 -0.502487
lowerback 3.56833 2.80686 2.31068
upperback 0.615154 3.8619 2.10809
thorax -1.35879 1.92271 0.690045
lowerneck -10.6737 -10.1793 -10.9189
upperneck 20.2943 -12.862 3.88433
head 9.1038 -6.49676 1.57756
rclavicle -2.79028e-014 -7.95139e-015
rhumerus -1.41926 -8.72378 -84.3769
rradius 42.4038
rwrist -21.9899
rhand -2.26578 31.365
rfingers 7.12502
rthumb 23.4185 2.76996
lclavicle -2.79028e-014 -7.95139e-015
lhumerus -33.5914 9.3351 82.6557
lradius 53.6885
lwrist 178.707
lhand -24.9807 -18.2321
lfingers 7.12502
lthumb 1.53024 11.7422
rfemur -11.2288 0.986805 24.6199
rtibia 27.5431
rfoot -10.6331 -13.7337
rtoes 11.8919
lfemur -22.3747 -2.12283 -16.5022
ltibia 49.6822
lfoot -11.2384 1.45603
ltoes -10.3394
49
root 12.2208 18.2418 -11.4075 -2.23452 6.26717 -0.886586
lowerback 3.46752 2.7344 2.6621
upperback 0.563158 3.77676 2.15939
thorax -1.33693 1.87856 0.555298
lowerneck -10.3814 -10.1799 -10.9602
upperneck 19.6754 -12.8913 4.02352
head 8.85226 -6.50567 1.65242
rclavicle -1.019e-014 -3.81667e-014
rhumerus -2.04834 -7.09453 -84.2972
rradius 43.3088
rwrist -22.162
rhand -2.3534 30.88
rfingers 7.12502
rthumb 23.3344 2.27432
lclavicle -1.019e-014 -3.81667e-014
lhumerus -34.1544 10.1449 81.8596
lradius 53.1978
lwrist 178.54
lhand -25.6874 -19.882
lfingers 7.12502
lthumb 0.847645 10.096
rfemur -11.0205 1.06131 25.1154
rtibia 27.3272
rfoot -10.7508 -13.8
rtoes 10.3255
lfemur -23.0609 -2.34595 -16.0766
ltibia 47.8881
lfoot -11.5473 1.44734
ltoes -12.185
50
root 12.215 18.2533 -11.2914 -2.07238 6.31293 -0.803227
lowerback 3.41933 2.7129 2.59833
upperback 0.620894 3.73998 2.04996
thorax -1.2477 1.86139 0.4847
lowerneck -10.2031 -10.2546 -10.8588
upperneck 18.883 -13.0105 4.08062
head 8.55514 -6.55209 1.66452
rclavicle 1.62444e-015 -1.19271e-014
rhumerus -2.70342 -5.73953 -84.1774
rradius 44.2008
rwrist -20.6074
rhand -4.66326 30.5564
rfingers 7.12502
rthumb 21.1169 1.68633
lclavicle 1.62444e-015 -1.19271e-014
lhumerus -34.4978 10.9188 81.0942
lradius 52.5706
lwrist 178.243
lhand -26.671 -20.8633
lfingers 7.12502
lthumb -0.102303 9.11643
rfemur -10.5911 0.985536 25.0904
rtibia 26.982
rfoot -10.975 -13.7914
rtoes 10.3677
lfemur -23.51 -2.66035 -16.168
ltibia 45.9188
lfoot -11.6244 1.50851
ltoes -13.9046
51
root 12.2112 18.2696 -11.1691 -1.8763 6.35619 -0.751415
lowerback 3.2737 2.74972 2.60941
upperback 0.734612 3.77805 1.94499
thorax -1.04132 1.88284 0.381218
lowerneck -10.5061 -10.4061 -10.9854
upperneck 18.5056 -13.2135 4.39801
head 8.52859 -6.61939 1.7507
rclavicle -2.88921e-014 -8.74653e-015
rhumerus -3.01568 -5.67449 -84.1769
rradius 44.3793
rwrist -17.8815
rhand -6.86272 30.6912
rfingers 7.12502
rthumb 19.0028 1.59945
lclavicle -2.88921e-014 -8.74653e-015
lhumerus -35.2196 11.6963 80.5074
lradius 52.4307
lwrist 177.863
lhand -26.8054 -21.173
lfingers 7.12502
lthumb -0.232181 8.8066
rfemur -10.1207 1.09377 25.1181
rtibia 26.6065
rfoot -11.1762 -14.0222
rtoes 10.0349
lfemur -23.8726 -3.05063 -16.1833
ltibia 43.7616
lfoot -11.4552 1.60054
ltoes -14.4371
52
root 12.2091 18.2808 -11.0505 -1.78505 6.25208 -0.937682
lowerback 3.30498 2.81671 2.92117
upperback 0.700081 3.87797 1.80142
thorax -1.06242 1.93107 0.0554518
lowerneck -10.3396 -10.5289 -10.955
upperneck 18.1347 -13.4676 4.76125
head 8.41716 -6.70753 1.84633
rclavicle 1.80583e-014 -4.77083e-015
rhumerus -3.73767 -6.04574 -84.3299
rradius 44.4711
rwrist -15.972
rhand -7.80794 31.5515
rfingers 7.12502
rthumb 18.0936 2.3731
lclavicle 1.80583e-014 -4.77083e-015
lhumerus -36.3339 12.113 79.6192
lradius 52.5978
lwrist 177.249
lhand -26.7777 -21.7894
lfingers 7.12502
lthumb -0.205344 8.19027
rfemur -9.60629 1.32518 25.4277
rtibia 26.2338
rfoot -11.283 -14.2844
rtoes 11.3435
lfemur -24.0461 -3.42831 -15.8769
ltibia 41.4009
lfoot -11.0146 1.45184
ltoes -12.9977
53
root 12.207 18.2925 -10.936 -1.76033 6.22755 -0.966455
lowerback 3.35111 2.82247 3.10312
upperback 0.749385 3.8889 1.57257
thorax -1.00926 1.93673 -0.280131
lowerneck -9.91984 -10.6077 -10.5905
upperneck 17.3432 -13.6733 4.88854
head 8.07467 -6.78144 1.84545
rclavicle -4.16702e-014 7.95139e-016
rhumerus -4.73707 -6.00447 -84.3958
rradius 45.05
rwrist -15.9208
rhand -7.68948 32.8413
rfingers 7.12502
rthumb 18.2076 3.67344
lclavicle -4.16702e-014 7.95139e-016
lhumerus -37.0816 12.1494 78.5264
lradius 52.5397
lwrist 176.731
lhand -26.9637 -21.6652
lfingers 7.12502
lthumb -0.384985 8.31417
rfemur -9.02687 1.32625 25.55
rtibia 25.8124
rfoot -11.1821 -14.4249
rtoes 12.6149
lfemur -24.0475 -3.96301 -15.7546
ltibia 38.9249
lfoot -10.7536 1.3656
ltoes -10.3872
54
root 12.2048 18.3113 -10.8189 -1.65952 6.36363 -0.910164
lowerback 3.21266 2.71882 3.12326
upperback 1.03485 3.7348 1.42962
thorax -0.632012 1.86719 -0.414795
lowerneck -10.4044 -10.6569 -10.3415
upperneck 16.7077 -13.7137 4.95659
head 7.93682 -6.76985 1.81313
rclavicle 6.44435e-014 8.74653e-015
rhumerus -5.30145 -5.40109 -84.2709
rradius 45.8061
rwrist -17.3667
rhand -6.7966 33.5633
rfingers 7.12502
rthumb 19.0664 4.47784
lclavicle 6.44435e-014 8.74653e-015
lhumerus -37.3145 12.4688 77.7412
lradius 52.1897
lwrist 176.48
lhand -26.4659 -21.2202
lfingers 7.12502
lthumb 0.0957168 8.75957
rfemur -8.46536 1.37265 25.5805
rtibia 25.3606
rfoot -11.098 -14.8169
rtoes 12.2993
lfemur -24.0368 -4.67489 -15.7249
ltibia 36.4168
lfoot -10.5801 1.40255
ltoes -8.06687
55
root 12.1993 18.332 -10.7025 -1.46167 6.3091 -1.03982
lowerback 2.98955 2.66106 3.11441
upperback 1.26052 3.64143 1.47319
thorax -0.281852 1.827 -0.343358
lowerneck -10.9699 -10.7258 -10.5302
upperneck 16.2999 -13.7448 5.22252
head 7.93615 -6.76014 1.89962
rclavicle 5.56597e-015 0
rhumerus -5.87482 -4.38316 -84.0686
rradius 46.6523
rwrist -19.1495
rhand -6.14186 33.4893
rfingers 7.12502
rthumb 19.696 4.46716
lclavicle 5.56597e-015 0
lhumerus -37.7053 13.0997 77.122
lradius 51.7027
lwrist 176.265
lhand -25.4695 -20.2833
lfingers 7.12502
lthumb 1.05808 9.69382
rfemur -8.00336 1.61677 25.8293
rtibia 24.8648
rfoot -11.238 -15.1209
rtoes 12.7688
lfemur -24.0963 -5.33109 -15.4017
ltibia 33.9344
lfoot -10.2661 1.45619
ltoes -7.81015
56
root 12.196 18.3449 -10.5877 -1.31253 6.07031 -1.18167
lowerback 2.80707 2.59867 2.95921
upperback 1.32357 3.54525 1.57944
thorax -0.134201 1.78051 -0.134953
lowerneck -10.7765 -10.7456 -10.7675
upperneck 15.7592 -13.7658 5.46073
head 7.76016 -6.76949 2.02829
rclavicle 3.56073e-014 7.55382e-015
rhumerus -6.89697 -2.96433 -83.9764
rradius 47.7221
rwrist -20.8953
rhand -6.19966 32.8516
rfingers 7.12502
rthumb 19.6404 3.82372
lclavicle 3.56073e-014 7.55382e-015
lhumerus -38.8205 14.0539 76.2833
lradius 51.395
lwrist 176.085
lhand -24.9305 -18.642
lfingers 7.12502
lthumb 1.57865 11.3319
rfemur -7.50863 1.55145 26.046
rtibia 24.3267
rfoot -11.4092 -14.8771
rtoes 13.2832
lfemur -24.0631 -6.05783 -15.0066
ltibia 31.5052
lfoot -9.97348 1.55946
ltoes -8.73222
57
root 12.2025 18.3519 -10.467 -1.30049 6.04114 -1.27565
lowerback 2.73938 2.41918 2.96852
upperback 1.30648 3.30376 1.53797
thorax -0.116651 1.66004 -0.173852
lowerneck -10.3939 -10.6709 -10.8129
upperneck 15.4051 -13.7253 5.71438
head 7.59534 -6.74221 2.14836
rclavicle 5.96354e-016 -1.59028e-014
rhumerus -8.29793 -1.4662 -84.1466
rradius 49.1322
rwrist -22.5733
rhand -6.44923 31.8555
rfingers 7.12502
rthumb 19.4005 2.80333
lclavicle 5.96354e-016 -1.59028e-014
lhumerus -40.3359 15.196 75.0773
lradius 51.1934
lwrist 176.009
lhand -24.5892 -16.52
lfingers 7.12502
lthumb 1.90829 13.4512
rfemur -6.82988 1.08027 26.1522
rtibia 23.7585
rfoot -11.4563 -14.5091
rtoes 13.2129
lfemur -23.858 -7.02782 -14.713
ltibia 29.1716
lfoot -9.56125 1.66492
ltoes -9.62559
58
root 12.2106 18.3668 -10.3512 -1.16512 6.00005 -1.25506
lowerback 2.69413 2.34958 3.09389
upperback 1.28689 3.2115 1.33761
thorax -0.0951956 1.61501 -0.444336
lowerneck -10.4368 -10.7275 -10.9408
upperneck 15.374 -13.8539 6.13264
head 7.6439 -6.77487 2.2818
rclavicle -4.49999e-014 -1.98785e-015
rhumerus -9.60996 0.150121 -84.2207
rradius 50.6589
rwrist -23.7841
rhand -7.38213 31.3625
rfingers 7.12502
rthumb 18.5033 2.22247
lclavicle -4.49999e-014 -1.98785e-015
lhumerus -41.5156 16.058 73.8595
lradius 50.8723
lwrist 175.868
lhand -24.1754 -15.2284
lfingers 7.12502
lthumb 2.30798 14.7389
rfemur -6.27363 0.664752 26.1405
rtibia 23.1757
rfoot -11.3029 -14.2788
rtoes 12.2144
lfemur -23.7817 -7.89728 -14.5577
ltibia 26.9506
lfoot -8.95077 1.98485
ltoes -11.1446
59
root 12.2112 18.3839 -10.2423 -0.972953 5.58026 -1.12625
lowerback 2.66951 2.4552 2.99507
upperback 1.31341 3.34734 1.19733
thorax -0.0474509 1.68366 -0.533789
lowerneck -10.6299 -10.894 -11.187
upperneck 15.2872 -14.0627 6.39185
head 7.7055 -6.86119 2.36354
rclavicle -9.7653e-015 -2.38542e-015
rhumerus -10.6256 2.19175 -84.0125
rradius 52.1117
rwrist -24.502
rhand -9.14318 31.7751
rfingers 7.12502
rthumb 16.8086 2.48262
lclavicle -9.7653e-015 -2.38542e-015
lhumerus -42.3742 16.5884 73.0751
lradius 50.4841
lwrist 175.705
lhand -23.8595 -17.5577
lfingers 7.12502
lthumb 2.61302 12.4061
rfemur -5.82628 0.682088 26.0477
rtibia 22.6439
rfoot -11.1722 -14.0837
rtoes 11.1031
lfemur -23.7299 -8.56245 -14.4114
ltibia 24.8316
lfoot -8.40124 2.62833
ltoes -12.2229
60
root 12.2064 18.3931 -10.1234 -1.03933 5.08527 -1.13915
lowerback 2.7079 2.52431 2.81782
upperback 1.37118 3.43535 1.21352
thorax -0.01849 1.72761 -0.421003
lowerneck -10.4523 -10.9303 -11.344
upperneck 15.0407 -14.0901 6.39527
head 7.60827 -6.88821 2.39734
rclavicle 2.85753e-015 5.1684e-015
rhumerus -11.6534 3.92817 -83.9999
rradius 53.6128
rwrist -24.1696
rhand -11.2637 31.8803
rfingers 7.12502
rthumb 14.7664 2.42627
lclavicle 2.85753e-015 5.1684e-015
lhumerus -43.2527 17.0085 72.4273
lradius 49.9641
lwrist 175.693
lhand -23.2834 -19.8019
lfingers 7.12502
lthumb 3.16944 10.1543
rfemur -5.09668 0.866835 26.1221
rtibia 22.1463
rfoot -11.2998 -13.8397
rtoes 10.8063
lfemur -23.3914 -9.21566 -14.0853
ltibia 22.885
lfoot -7.93616 3.21285
ltoes -12.1708
61
root 12.2107 18.399 -10.002 -1.05901 4.82642 -0.927431
lowerback 2.7508 2.53189 2.55706
upperback 1.3902 3.43995 1.09723
thorax -0.031246 1.72906 -0.396741
lowerneck -10.2135 -10.9166 -11.4008
upperneck 14.8297 -14.0836 6.43901
head 7.50468 -6.89183 2.43688
rclavicle -6.58474e-015 -1.35174e-014
rhumerus -12.6086 5.03705 -84.2084
rradius 54.9174
rwrist -23.1189
rhand -13.2516 31.1612
rfingers 7.12502
rthumb 12.8507 1.57681
lclavicle -6.58474e-015 -1.35174e-014
lhumerus -44.1798 17.0868 71.6653
lradius 49.425
lwrist 176.038
lhand -22.5758 -18.8514
lfingers 7.12502
lthumb 3.85275 11.0935
rfemur -4.36246 0.557623 25.8707
rtibia 21.612
rfoot -11.4272 -13.3388
rtoes 10.6169
lfemur -23.1124 -9.87103 -14.1095
ltibia 21.1956
lfoot -7.35486 3.46953
ltoes -12.0206
62
root 12.2219 18.4049 -9.89276 -0.819913 4.58018 -0.793298
lowerback 2.56092 2.51239 2.46635
upperback 1.31175 3.40666 0.984201
thorax -0.00490817 1.71203 -0.453954
lowerneck -9.88294 -10.8888 -11.6238
upperneck 14.6355 -14.0695 6.63517
head 7.41437 -6.89074 2.55431
rclavicle 2.18166e-014 -7.95139e-016
rhumerus -13.5051 6.28607 -84.3944
rradius 56.0784
rwrist -22.4285
rhand -14.974 30.6487
rfingers 7.12502
rthumb 11.1898 0.967071
lclavicle 2.18166e-014 -7.95139e-016
lhumerus -45.2405 17.3893 70.769
lradius 48.7502
lwrist 176.211
lhand -22.1679 -18.1143
lfingers 7.12502
lthumb 4.24661 11.8231
rfemur -3.93919 0.402205 25.7039
rtibia 21.0461
rfoot -11.189 -13.1152
rtoes 9.42117
lfemur -23.2426 -10.4453 -14.0299
ltibia 19.7878
lfoot -6.6484 3.63266
ltoes -13.7438
